<svg width="500" height="300" xmlns="http://www.w3.org/2000/svg">
  <rect width="500" height="300" fill="#f8f9fa"/>
  <rect x="20" y="20" width="460" height="260" fill="white" stroke="#28a745" stroke-width="2" rx="8"/>
  <text x="250" y="50" font-family="Arial, sans-serif" font-size="18" font-weight="bold" text-anchor="middle" fill="#28a745">
    Cartes d'Entrepreneuriat
  </text>
  <rect x="40" y="70" width="120" height="80" fill="#d4edda" stroke="#28a745" stroke-width="1" rx="4"/>
  <text x="100" y="105" font-family="Arial, sans-serif" font-size="14" text-anchor="middle" fill="#155724">
    Business
  </text>
  <text x="100" y="125" font-family="Arial, sans-serif" font-size="14" text-anchor="middle" fill="#155724">
    Model
  </text>
  <rect x="180" y="70" width="120" height="80" fill="#d4edda" stroke="#28a745" stroke-width="1" rx="4"/>
  <text x="240" y="105" font-family="Arial, sans-serif" font-size="14" text-anchor="middle" fill="#155724">
    Market
  </text>
  <text x="240" y="125" font-family="Arial, sans-serif" font-size="14" text-anchor="middle" fill="#155724">
    Research
  </text>
  <rect x="320" y="70" width="120" height="80" fill="#d4edda" stroke="#28a745" stroke-width="1" rx="4"/>
  <text x="380" y="105" font-family="Arial, sans-serif" font-size="14" text-anchor="middle" fill="#155724">
    Value
  </text>
  <text x="380" y="125" font-family="Arial, sans-serif" font-size="14" text-anchor="middle" fill="#155724">
    Proposition
  </text>
  <rect x="40" y="170" width="120" height="80" fill="#d4edda" stroke="#28a745" stroke-width="1" rx="4"/>
  <text x="100" y="205" font-family="Arial, sans-serif" font-size="14" text-anchor="middle" fill="#155724">
    Customer
  </text>
  <text x="100" y="225" font-family="Arial, sans-serif" font-size="14" text-anchor="middle" fill="#155724">
    Segment
  </text>
  <rect x="180" y="170" width="120" height="80" fill="#d4edda" stroke="#28a745" stroke-width="1" rx="4"/>
  <text x="240" y="205" font-family="Arial, sans-serif" font-size="14" text-anchor="middle" fill="#155724">
    Revenue
  </text>
  <text x="240" y="225" font-family="Arial, sans-serif" font-size="14" text-anchor="middle" fill="#155724">
    Streams
  </text>
  <rect x="320" y="170" width="120" height="80" fill="#d4edda" stroke="#28a745" stroke-width="1" rx="4"/>
  <text x="380" y="205" font-family="Arial, sans-serif" font-size="14" text-anchor="middle" fill="#155724">
    Key
  </text>
  <text x="380" y="225" font-family="Arial, sans-serif" font-size="14" text-anchor="middle" fill="#155724">
    Resources
  </text>
</svg>